<?xml version="1.0" encoding="utf-8"?>
<!-- Svg Vector Icons : http://www.onlinewebfonts.com/icon -->
<!DOCTYPE svg PUBLIC "-//W3C//DTD SVG 1.1//EN" "http://www.w3.org/Graphics/SVG/1.1/DTD/svg11.dtd">
<svg version="1.1" xmlns="http://www.w3.org/2000/svg" xmlns:xlink="http://www.w3.org/1999/xlink" x="0px" y="0px" viewBox="0 0 256 256" enable-background="new 0 0 256 256" xml:space="preserve">
<metadata> Svg Vector Icons : http://www.onlinewebfonts.com/icon </metadata>
<g><g><g><g><g><path fill="#000000" d="M220.8,76.8c7.7-7.7,7.7-20.2,0-27.9c-7.7-7.7-20.2-7.7-27.9,0l-16.1,16c-7.9-4.7-16.6-8.4-25.7-10.7V42.3h10.2c5.5,0,10-4.5,10-10V20c0-5.5-4.5-10-10-10H92.6c-5.5,0-10,4.5-10,10v12.3c0,5.5,4.5,10,10,10h11.2v11.6c-42.6,10.5-74.3,48.9-74.3,94.6c0,53.8,43.7,97.5,97.5,97.5c53.7,0,97.5-43.7,97.5-97.5c0-21.2-6.9-40.9-18.5-56.9L220.8,76.8z M127,222.4c-40.7,0-73.9-33.1-73.9-73.9c0-40.7,33.1-73.9,73.9-73.9c40.7,0,73.9,33.1,73.9,73.9C200.8,189.2,167.7,222.4,127,222.4z"/><path fill="#000000" d="M127,89.3c-6.5,0-11.8,5.3-11.8,11.8v47.4c0,6.5,5.3,11.8,11.8,11.8c6.5,0,11.8-5.3,11.8-11.8v-47.4C138.8,94.6,133.5,89.3,127,89.3z"/></g></g></g><g></g><g></g><g></g><g></g><g></g><g></g><g></g><g></g><g></g><g></g><g></g><g></g><g></g><g></g><g></g></g></g>
</svg>